<svg width="200" height="200" viewBox="0 0 200 200" fill="none" xmlns="http://www.w3.org/2000/svg">
<path d="M62.9062 68.2812V77.5H58.0312V68.2812H62.9062ZM62.3125 119.312V127.719H57.4375V119.312H62.3125ZM65.75 109.062C65.75 107.875 65.5312 106.865 65.0938 106.031C64.6771 105.198 63.9896 104.458 63.0312 103.812C62.0938 103.167 60.8229 102.542 59.2188 101.938C56.5104 100.896 54.125 99.7917 52.0625 98.625C50.0208 97.4375 48.4271 95.9688 47.2812 94.2188C46.1354 92.4479 45.5625 90.2083 45.5625 87.5C45.5625 84.9167 46.1771 82.6771 47.4062 80.7812C48.6354 78.8854 50.3333 77.4271 52.5 76.4062C54.6875 75.3646 57.2292 74.8438 60.125 74.8438C62.3333 74.8438 64.3333 75.1771 66.125 75.8438C67.9167 76.4896 69.4583 77.4479 70.75 78.7188C72.0417 79.9688 73.0312 81.5 73.7188 83.3125C74.4062 85.125 74.75 87.1979 74.75 89.5312H65.7812C65.7812 88.2812 65.6458 87.1771 65.375 86.2188C65.1042 85.2604 64.7083 84.4583 64.1875 83.8125C63.6875 83.1667 63.0833 82.6875 62.375 82.375C61.6667 82.0417 60.8854 81.875 60.0312 81.875C58.7604 81.875 57.7188 82.125 56.9062 82.625C56.0938 83.125 55.5 83.8021 55.125 84.6562C54.7708 85.4896 54.5938 86.4479 54.5938 87.5312C54.5938 88.5938 54.7812 89.5208 55.1562 90.3125C55.5521 91.1042 56.2292 91.8333 57.1875 92.5C58.1458 93.1458 59.4583 93.8125 61.125 94.5C63.8333 95.5417 66.2083 96.6667 68.25 97.875C70.2917 99.0833 71.8854 100.562 73.0312 102.312C74.1771 104.062 74.75 106.292 74.75 109C74.75 111.688 74.125 113.979 72.875 115.875C71.625 117.75 69.875 119.188 67.625 120.188C65.375 121.167 62.7708 121.656 59.8125 121.656C57.8958 121.656 55.9896 121.406 54.0938 120.906C52.1979 120.385 50.4792 119.552 48.9375 118.406C47.3958 117.26 46.1667 115.74 45.25 113.844C44.3333 111.927 43.875 109.573 43.875 106.781H52.875C52.875 108.302 53.0729 109.573 53.4688 110.594C53.8646 111.594 54.3854 112.396 55.0312 113C55.6979 113.583 56.4479 114 57.2812 114.25C58.1146 114.5 58.9583 114.625 59.8125 114.625C61.1458 114.625 62.2396 114.385 63.0938 113.906C63.9688 113.427 64.625 112.771 65.0625 111.938C65.5208 111.083 65.75 110.125 65.75 109.062Z" fill="#7126F3"/>
<path d="M93.0469 95.6406V100.422H78.2812V95.6406H93.0469ZM81.9375 89.3828H88.6875V113.359C88.6875 114.094 88.7812 114.656 88.9688 115.047C89.1719 115.438 89.4688 115.711 89.8594 115.867C90.25 116.008 90.7422 116.078 91.3359 116.078C91.7578 116.078 92.1328 116.062 92.4609 116.031C92.8047 115.984 93.0938 115.938 93.3281 115.891L93.3516 120.859C92.7734 121.047 92.1484 121.195 91.4766 121.305C90.8047 121.414 90.0625 121.469 89.25 121.469C87.7656 121.469 86.4688 121.227 85.3594 120.742C84.2656 120.242 83.4219 119.445 82.8281 118.352C82.2344 117.258 81.9375 115.82 81.9375 114.039V89.3828ZM110.578 115.281V103.984C110.578 103.172 110.445 102.477 110.18 101.898C109.914 101.305 109.5 100.844 108.938 100.516C108.391 100.188 107.68 100.023 106.805 100.023C106.055 100.023 105.406 100.156 104.859 100.422C104.312 100.672 103.891 101.039 103.594 101.523C103.297 101.992 103.148 102.547 103.148 103.188H96.3984C96.3984 102.109 96.6484 101.086 97.1484 100.117C97.6484 99.1484 98.375 98.2969 99.3281 97.5625C100.281 96.8125 101.414 96.2266 102.727 95.8047C104.055 95.3828 105.539 95.1719 107.18 95.1719C109.148 95.1719 110.898 95.5 112.43 96.1562C113.961 96.8125 115.164 97.7969 116.039 99.1094C116.93 100.422 117.375 102.062 117.375 104.031V114.883C117.375 116.273 117.461 117.414 117.633 118.305C117.805 119.18 118.055 119.945 118.383 120.602V121H111.562C111.234 120.312 110.984 119.453 110.812 118.422C110.656 117.375 110.578 116.328 110.578 115.281ZM111.469 105.555L111.516 109.375H107.742C106.852 109.375 106.078 109.477 105.422 109.68C104.766 109.883 104.227 110.172 103.805 110.547C103.383 110.906 103.07 111.328 102.867 111.812C102.68 112.297 102.586 112.828 102.586 113.406C102.586 113.984 102.719 114.508 102.984 114.977C103.25 115.43 103.633 115.789 104.133 116.055C104.633 116.305 105.219 116.43 105.891 116.43C106.906 116.43 107.789 116.227 108.539 115.82C109.289 115.414 109.867 114.914 110.273 114.32C110.695 113.727 110.914 113.164 110.93 112.633L112.711 115.492C112.461 116.133 112.117 116.797 111.68 117.484C111.258 118.172 110.719 118.82 110.062 119.43C109.406 120.023 108.617 120.516 107.695 120.906C106.773 121.281 105.68 121.469 104.414 121.469C102.805 121.469 101.344 121.148 100.031 120.508C98.7344 119.852 97.7031 118.953 96.9375 117.812C96.1875 116.656 95.8125 115.344 95.8125 113.875C95.8125 112.547 96.0625 111.367 96.5625 110.336C97.0625 109.305 97.7969 108.438 98.7656 107.734C99.75 107.016 100.977 106.477 102.445 106.117C103.914 105.742 105.617 105.555 107.555 105.555H111.469ZM129.703 85V121H122.93V85H129.703ZM142.031 84.9766V121H135.281V84.9766H142.031ZM158.016 95.6406L147 108.203L141.094 114.18L138.633 109.305L143.32 103.352L149.906 95.6406H158.016ZM151.008 121L143.508 109.281L148.172 105.203L158.789 121H151.008Z" fill="#7126F3"/>
</svg>
