<svg width="34" height="40" viewBox="0 0 34 40" fill="none" xmlns="http://www.w3.org/2000/svg">
<path fill-rule="evenodd" clip-rule="evenodd" d="M22.7559 1.89225C27.1647 4.76872 28.0353 10.1217 28.0956 15.0025C28.121 17.066 28.1016 19.1205 28.0821 21.1723C28.0443 25.164 28.0066 29.1455 28.3 33.1628C28.2794 32.8761 23.6309 32.1864 23.1 32.1628C21.9838 32.1146 20.8294 32.2194 19.688 32.323C19.1255 32.3741 18.5662 32.4249 18.0161 32.457C17.0568 32.5169 16.0761 32.541 15.0899 32.5652C13.1994 32.6115 11.289 32.6584 9.47203 32.9599C9.1197 33.0185 8.772 33.0779 8.42715 33.1368C6.60148 33.4484 4.85561 33.7464 2.9235 33.854C2.77077 33.8805 2.61363 33.8496 2.48232 33.7673C2.33527 33.6467 2.33527 33.429 2.33527 33.2393C2.33527 30.9663 2.43709 28.6942 2.53883 26.4239C2.68255 23.217 2.82612 20.0136 2.68232 16.8158C2.55441 14.0952 3.00553 11.3784 4.00585 8.84519C4.86051 6.66066 6.20125 4.69934 7.92644 3.1099C8.39481 2.68661 8.89752 2.30294 9.42938 1.96284C13.3809 -0.578336 18.775 -0.704806 22.7559 1.89225ZM9.79115 12.9173L11.8632 14.3878L18.5397 7.71284L17.7 7.18196C16.8996 8.53832 15.8014 9.69493 14.4882 10.5643C13.038 11.5605 11.4574 12.3523 9.79115 12.9173Z" fill="#00214E"/>
<path d="M33.6882 34.2231C23.8576 41.7924 10.1457 41.7319 0.382324 34.0761L7.53821 30.7216C7.75725 30.6181 7.97077 30.5032 8.17791 30.3775L8.34262 30.2746C8.40144 30.2378 8.4588 30.1996 8.51615 30.1599C9.41895 29.5371 10.1588 28.7064 10.6735 27.7378C11.2617 26.6275 11.4559 25.4011 11.4647 24.1511C11.4647 23.4643 11.4367 22.7775 11.4191 22.0922C11.4191 21.9383 11.4161 21.7839 11.4103 21.629C11.4044 21.1633 11.3995 20.6971 11.3956 20.2305H11.4044L11.6867 20.3775L12.4514 20.7731L16.9059 21.5305L21.4823 22.3099L21.5912 25.9864L21.6162 26.854V27.0114L21.6853 29.3452L23.372 30.0319L24.6956 30.5672L33.6882 34.2231Z" fill="#F2A196"/>
<path d="M21.5912 25.9849C21.2731 26.2034 20.8929 26.3133 20.5073 26.2981C18.3338 26.0643 14.0897 24.3599 11.422 21.2055C11.422 21.0515 11.4191 20.8971 11.4132 20.7422C11.4132 20.5716 11.4132 20.4011 11.4132 20.2305L11.6956 20.3775L12.4603 20.7731L16.9147 21.5305L21.4912 22.3099L21.5912 25.9849Z" fill="#E88870"/>
<circle cx="7.27789" cy="15.5201" r="2.5" fill="#F2A196"/>
<circle cx="8.16028" cy="15.2261" r="2.5" fill="#E88870"/>
<path d="M24.7103 11.7349C26.4367 17.7172 22.7676 24.951 20.5132 24.951C17.425 24.951 9.92497 22.4834 8.19997 16.501C6.47497 10.5187 8.77497 4.60103 13.3338 3.28632C17.8926 1.97162 22.9823 5.75103 24.7103 11.7349Z" fill="#F2A196"/>
<path d="M16.172 19.0026C16.8784 19.7919 17.8471 20.2982 18.8985 20.4276" stroke="#00214E"/>
<path d="M19.2044 12.3643C19.2044 12.3937 19.9088 13.6231 20.2808 14.951C20.4528 15.6614 20.5324 16.3909 20.5176 17.1216H18.5308" stroke="#00214E"/>
<path d="M21.0294 11.1129C22.0683 10.5836 23.2699 10.47 24.3897 10.7953" stroke="#00214E"/>
<path d="M12.3323 11.6981C13.7651 10.9683 15.4485 10.9144 16.925 11.551" stroke="#00214E"/>
<path d="M14.9117 13.0011C15.8088 13.0085 15.8088 14.379 14.9117 14.3864H14.8705C13.9735 14.3864 13.9735 13.0085 14.8705 13.0011H14.9117Z" fill="#00214E"/>
<path d="M22.2823 12.7966C23.1161 12.7966 23.1161 14.076 22.2823 14.0819H22.2455C21.4132 14.0819 21.4132 12.8025 22.2455 12.7966H22.2823Z" fill="#00214E"/>
<path d="M19.3529 1.71578C19.2845 2.40832 19.173 3.09593 19.0191 3.7746C18.756 4.97223 18.3095 6.12205 17.6955 7.18343C16.8952 8.53979 15.7969 9.6964 14.4838 10.5658C13.0335 11.562 11.453 12.3538 9.78671 12.9187C8.48671 13.3717 7.13965 13.4114 5.74847 13.6878C5.79406 12.5658 5.74847 11.4717 5.88671 10.1687C5.98965 9.23343 6.19553 8.34078 6.61024 7.62166C7.73543 5.7189 9.37678 4.17393 11.3441 3.16578L11.3617 3.15696C13.5367 2.03784 16.9058 0.933427 19.3529 1.71578Z" fill="#00214E"/>
<circle cx="7.64554" cy="15.5143" r="0.883823" fill="#F2D4CF"/>
<path d="M5.96909 17.6422C5.91468 17.6334 5.8588 17.6231 5.80292 17.6099C4.7414 17.3658 4.03263 16.3633 4.15655 15.2812C4.28047 14.199 5.19753 13.3827 6.28674 13.3849V13.3849C6.34939 13.3847 6.40398 13.4275 6.41868 13.4884C6.43338 13.5493 6.40435 13.6124 6.34851 13.6408C5.69917 13.9905 5.2757 14.6499 5.22788 15.3859C5.18005 16.1218 5.5146 16.8306 6.11321 17.2614C6.19157 17.3166 6.22261 17.4179 6.18867 17.5076C6.15474 17.5973 6.06442 17.6527 5.96909 17.6422V17.6422Z" fill="#F2D4CF"/>
<path d="M5.922 13.6173C6.22666 13.5011 6.56405 13.5048 6.86611 13.6276C7.18674 13.7701 7.43163 14.0422 7.53964 14.3761C7.62309 14.6118 7.65908 14.8617 7.64553 15.1114" stroke="#F2D4CF" stroke-width="2"/>
<path d="M33.6882 34.2231C23.8576 41.7924 10.1457 41.7319 0.382324 34.076L7.53821 30.7216C7.879 30.5614 8.20608 30.3735 8.51615 30.1599C8.61027 30.0952 8.70438 30.0275 8.79409 29.9569C9.5729 29.361 10.214 28.6041 10.6735 27.7378C11.0209 27.0722 11.2517 26.352 11.3559 25.6084C11.4597 25.709 11.5687 25.8043 11.6823 25.8937C12.5839 26.561 13.5625 27.1174 14.597 27.551C15.0992 27.7605 15.6128 27.9417 16.1353 28.0937C17.7094 28.5527 19.3529 28.7265 20.9882 28.6069C21.2147 28.5893 21.4426 28.5672 21.6691 28.551L21.6911 29.2981V29.3466L23.4706 30.0702L33.6882 34.2231Z" fill="#F2D4CF"/>
<path d="M17.6926 7.18936C16.8923 8.54572 15.794 9.70233 14.4809 10.5717C13.0306 11.5679 11.4501 12.3597 9.7838 12.9247L5.8838 10.1747L4.00586 8.85113C4.86052 6.66659 6.20125 4.70528 7.92645 3.11583C8.39459 2.69051 8.8973 2.30486 9.42939 1.96289L11.3412 3.17171L17.6926 7.18936Z" fill="url(#paint0_linear_84_116)"/>
<defs>
<linearGradient id="paint0_linear_84_116" x1="13.1855" y1="17.0511" x2="19.0986" y2="4.78159" gradientUnits="userSpaceOnUse">
<stop offset="0.29" stop-color="#00214E"/>
<stop offset="0.51" stop-color="#6878B1"/>
<stop offset="0.79" stop-color="#00214E"/>
</linearGradient>
</defs>
</svg>
