<svg width="18" height="18" viewBox="0 0 18 18" fill="none" xmlns="http://www.w3.org/2000/svg">
<g clip-path="url(#clip0_45_50)">
<path d="M7.50002 11.25V14.25C7.50002 14.8467 7.73708 15.419 8.15903 15.841C8.58099 16.2629 9.15329 16.5 9.75002 16.5L12.75 9.75V1.5H4.29002C3.92828 1.49591 3.57724 1.62269 3.30159 1.85699C3.02595 2.09129 2.84427 2.41732 2.79002 2.775L1.75502 9.525C1.72239 9.73998 1.73689 9.95949 1.79752 10.1683C1.85814 10.3771 1.96345 10.5703 2.10613 10.7344C2.24881 10.8984 2.42546 11.0295 2.62384 11.1186C2.82222 11.2076 3.03759 11.2525 3.25502 11.25H7.50002ZM12.75 1.5H14.7525C15.177 1.49249 15.5894 1.6411 15.9116 1.91761C16.2337 2.19412 16.4431 2.57929 16.5 3V8.25C16.4431 8.6707 16.2337 9.05587 15.9116 9.33238C15.5894 9.60889 15.177 9.7575 14.7525 9.75H12.75" fill="white"/>
<path d="M12.75 9.75L9.75002 16.5C9.15329 16.5 8.58099 16.2629 8.15903 15.841C7.73708 15.419 7.50002 14.8467 7.50002 14.25V11.25H3.25502C3.03759 11.2525 2.82222 11.2076 2.62384 11.1186C2.42546 11.0295 2.24881 10.8984 2.10613 10.7344C1.96345 10.5703 1.85814 10.3771 1.79752 10.1683C1.73689 9.95948 1.72239 9.73998 1.75502 9.525L2.79002 2.775C2.84427 2.41732 3.02595 2.09129 3.30159 1.85699C3.57724 1.62269 3.92828 1.49591 4.29002 1.5H12.75M12.75 9.75V1.5M12.75 9.75H14.7525C15.177 9.7575 15.5894 9.60889 15.9116 9.33238C16.2337 9.05587 16.4431 8.6707 16.5 8.25V3C16.4431 2.57929 16.2337 2.19412 15.9116 1.91761C15.5894 1.6411 15.177 1.49249 14.7525 1.5H12.75" stroke="#7126F3" stroke-width="2" stroke-linecap="round" stroke-linejoin="round"/>
</g>
<defs>
<clipPath id="clip0_45_50">
<rect width="18" height="18" fill="white"/>
</clipPath>
</defs>
</svg>
