<svg width="85" height="18" viewBox="0 0 85 18" fill="none" xmlns="http://www.w3.org/2000/svg">
<path d="M16.7188 13.8906V15.6875H0.585938V13.8906H7.53906V11.0195H2.5V5.23828H12.6562V3.05078H2.46094V1.29297H14.8047V6.95703H4.66797V9.24219H15.2148V11.0195H9.6875V13.8906H16.7188ZM32.2852 1.70312V3.40234C32.2656 5.59961 32.2656 8.05078 31.582 11.7422L29.3945 11.5078C30.0879 8.07031 30.0879 5.56055 30.0977 3.44141H19.5508V1.70312H32.2852ZM17.8711 15.4531V13.6758H23.8086V7.54297H25.957V13.6758H33.9648V15.4531H17.8711ZM43.1836 0.257812C47.207 0.267578 49.541 1.3418 49.5508 3.28516C49.541 5.08203 47.6074 6.11719 44.2383 6.30273V7.42578H51.25V9.16406H35.1562V7.42578H42.0898V6.30273C38.75 6.11719 36.8164 5.07227 36.8164 3.28516C36.8164 1.3418 39.1699 0.267578 43.1836 0.257812ZM37.0508 11.9375V10.2969H49.2383V14.6133H39.1992V15.9219H49.7266V17.582H37.0703V13.0703H47.1094V11.9375H37.0508ZM39.1016 3.28516C39.0918 4.26172 40.498 4.71094 43.1836 4.73047C45.9082 4.71094 47.3047 4.26172 47.3047 3.28516C47.3047 2.37695 45.9082 1.88867 43.1836 1.87891C40.498 1.88867 39.0918 2.37695 39.1016 3.28516ZM58.7695 5.10156C58.7598 7.82617 60.4004 10.9316 63.1836 12.2305L61.9727 13.9492C59.9805 13.0117 58.5059 11.1172 57.7148 8.91016C56.9141 11.332 55.3711 13.4023 53.3398 14.3789L52.0703 12.6797C54.8828 11.3418 56.5918 8.04102 56.6016 5.10156V3.61719H52.7539V1.82031H62.4609V3.61719H58.7695V5.10156ZM64.1016 17.7383V0.0820312H66.2695V6.95703H68.9844V8.77344H66.2695V17.7383H64.1016ZM84.4336 0.0820312V17.7578H82.2852V0.0820312H84.4336ZM70.6836 3.38281V1.625H79.0039V8.24609H72.9297V11.8008C75.7129 11.7812 78.1055 11.6348 80.8594 11.1758L81.0547 12.9531C78.0566 13.4707 75.4199 13.5879 72.2461 13.5781H70.7031V6.52734H76.7969V3.38281H70.6836Z" fill="#FF7710"/>
</svg>
