<svg width="23" height="26" viewBox="0 0 23 26" fill="none" xmlns="http://www.w3.org/2000/svg">
<path d="M18.0625 20.75V10.25C18.0625 6.62563 15.1244 3.6875 11.5 3.6875V3.6875M18.0625 20.75H4.9375M18.0625 20.75H22M4.9375 20.75V10.25C4.9375 6.62563 7.87563 3.6875 11.5 3.6875V3.6875M4.9375 20.75H1M11.5 3.6875V1.0625" stroke="black" stroke-width="2" stroke-linecap="round"/>
<path d="M14.125 23.375C14.125 24.0712 13.8484 24.7389 13.3562 25.2312C12.8639 25.7234 12.1962 26 11.5 26C10.8038 26 10.1361 25.7234 9.64384 25.2312C9.15156 24.7389 8.875 24.0712 8.875 23.375L11.5 23.375H14.125Z" fill="black"/>
</svg>
