<svg width="14" height="14" viewBox="0 0 14 14" fill="none" xmlns="http://www.w3.org/2000/svg">
<g clip-path="url(#clip0_45_61)">
<path d="M7.00004 8.75001L5.25004 7.00001M7.00004 8.75001C7.81487 8.44011 8.59656 8.04927 9.33337 7.58335M7.00004 8.75001V11.6667C7.00004 11.6667 8.76754 11.3458 9.33337 10.5C9.96337 9.55501 9.33337 7.58335 9.33337 7.58335M5.25004 7.00001C5.56046 6.19468 5.95133 5.42272 6.41671 4.69585C7.0964 3.60909 8.04282 2.71429 9.16596 2.09657C10.2891 1.47884 11.5516 1.15873 12.8334 1.16668C12.8334 2.75335 12.3784 5.54168 9.33337 7.58335M5.25004 7.00001H2.33337C2.33337 7.00001 2.65421 5.23251 3.50004 4.66668C4.44504 4.03668 6.41671 4.66668 6.41671 4.66668M2.62504 9.62501C1.75004 10.36 1.45837 12.5417 1.45837 12.5417C1.45837 12.5417 3.64004 12.25 4.37504 11.375C4.78921 10.885 4.78337 10.1325 4.32254 9.67751C4.0958 9.4611 3.79713 9.33605 3.48384 9.32636C3.17055 9.31667 2.86472 9.42303 2.62504 9.62501Z" stroke="#FF4100" stroke-width="1.5" stroke-linecap="round" stroke-linejoin="round"/>
</g>
<defs>
<clipPath id="clip0_45_61">
<rect width="14" height="14" fill="white"/>
</clipPath>
</defs>
</svg>
